# xmcd
#
# Track frame offsets: 
#        150
#        15747
#        34036
#        51643
#        67391
#        72878
#        92277
#        111159
#        129230
#        143937
#        164317
#        183701
#        202420
#        216076
#        238628
#        243751
#
# Disc length: 3454 seconds
#
# Revision: 0
# Processed by: cddbd v1.5.2PL0 Copyright (c) Steve Scherf et al.
# Submitted via: ExactAudioCopyFreeDBPlugin 1.0
#
DISCID=f10d7c10
DTITLE=Sammie - Sammie
DYEAR=2006
DGENRE=R&B
TTITLE0=Feelin' It
TTITLE1=I Can't
TTITLE2=You Should Be My Girl (Feat. Sean Paul of the YoungBloodZ)
TTITLE3=What About Your Friend
TTITLE4=Choose Me (Prelude)
TTITLE5=Choose Me
TTITLE6=Mission Impossible
TTITLE7=Come With Me
TTITLE8=Back 2 Love
TTITLE9=Another Last Chance
TTITLE10=Heavenly
TTITLE11=Slow
TTITLE12=Let It Ride
TTITLE13=My Own Way
TTITLE14=For All You've Done (Outro)
TTITLE15=Roll With Me
EXTD=
EXTT0=
EXTT1=
EXTT2=
EXTT3=
EXTT4=
EXTT5=
EXTT6=
EXTT7=
EXTT8=
EXTT9=
EXTT10=
EXTT11=
EXTT12=
EXTT13=
EXTT14=
EXTT15=
PLAYORDER=
